<svg xmlns="http://www.w3.org/2000/svg" xmlns:xlink="http://www.w3.org/1999/xlink" width="1920" height="1080" viewBox="0 0 1920 1080">
  <defs>
    <clipPath id="clip-Web_1920_1">
      <rect width="1920" height="1080"/>
    </clipPath>
  </defs>
  <g id="Web_1920_1" data-name="Web 1920 – 1" clip-path="url(#clip-Web_1920_1)">
    <rect width="1920" height="1080" fill="#fff"/>
    <text id="Baafiye" transform="translate(413 585)" font-size="228" font-family="ProductSans-Bold, Product Sans" font-weight="700"><tspan x="0" y="0">Baafiye</tspan></text>
    <path id="Icon_awesome-search" data-name="Icon awesome-search" d="M65.447,57.373,52.526,44.452a3.108,3.108,0,0,0-2.2-.907H48.21a26.944,26.944,0,1,0-4.666,4.666v2.112a3.108,3.108,0,0,0,.907,2.2L57.373,65.447a3.1,3.1,0,0,0,4.393,0l3.668-3.668A3.125,3.125,0,0,0,65.447,57.373ZM26.956,43.545A16.589,16.589,0,1,1,43.545,26.956,16.579,16.579,0,0,1,26.956,43.545Z" transform="translate(885.597 465.562) rotate(-94)"/>
  </g>
</svg>
