<svg xmlns="http://www.w3.org/2000/svg" xmlns:xlink="http://www.w3.org/1999/xlink" width="1920" height="1080" viewBox="0 0 1920 1080">
  <defs>
    <clipPath id="clip-Web_1920_2">
      <rect width="1920" height="1080"/>
    </clipPath>
  </defs>
  <g id="Web_1920_2" data-name="Web 1920 – 2" clip-path="url(#clip-Web_1920_2)">
    <rect width="1920" height="1080" fill="#fff"/>
    <g id="Group_10" data-name="Group 10" transform="translate(524.352 206.748)">
      <g id="Group_1" data-name="Group 1" transform="translate(271.874 25.174)">
        <path id="Path_1" data-name="Path 1" d="M265.456,112.8c-.146,0-.292-.005-.439-.014a78.606,78.606,0,0,1-62.581-39.509,7.011,7.011,0,0,1,.719-7.991h0c16.519-13.435,29.422-27.974,37.039-44.131a7.078,7.078,0,0,1,5.529-2.5,6.99,6.99,0,0,1,5.423,2.771c9.391,12.34,27.932,34.186,46.587,41.845a7.007,7.007,0,0,1,2.779,10.941l-29.672,36.03a7,7,0,0,1-5.384,2.556h0Z" transform="translate(-201.51 -18.658)" fill="#e6e6e6"/>
        <path id="Path_2" data-name="Path 2" d="M206.885,65.664l.517.433a1.931,1.931,0,0,0-.229,2.144,67.19,67.19,0,0,0,56.118,35.719,1.864,1.864,0,0,0,1.544-.7l29.459-35.771a1.913,1.913,0,0,0-.952-3.058c-20.008-5.847-41-32.931-46.958-41.094a1.9,1.9,0,0,0-1.476-.783,1.949,1.949,0,0,0-1.542.69A126.115,126.115,0,0,1,207.4,66.1l-.517-.433Z" transform="translate(-199.633 -17.297)" fill="#fff"/>
        <path id="Path_3" data-name="Path 3" d="M219.155,68.493l26.7-27.227C247.684,39.4,244.825,36.54,243,38.4l-26.7,27.227c-1.825,1.861,1.034,4.726,2.862,2.862Z" transform="translate(-196.552 -11.975)" fill="#e6e6e6"/>
        <path id="Path_4" data-name="Path 4" d="M231.117,72.87a105.5,105.5,0,0,0,19.018-22.647c1.384-2.215-2.116-4.249-3.495-2.043a101.634,101.634,0,0,1-18.386,21.827c-1.944,1.742.926,4.6,2.862,2.862h0Z" transform="translate(-192.396 -8.681)" fill="#e6e6e6"/>
        <path id="Path_5" data-name="Path 5" d="M241.856,80.223a111.746,111.746,0,0,0,16.919-24.677c1.167-2.321-2.324-4.373-3.495-2.043a107.794,107.794,0,0,1-16.286,23.858c-1.742,1.929,1.112,4.8,2.862,2.862h0Z" transform="translate(-188.61 -6.849)" fill="#e6e6e6"/>
      </g>
      <g id="Group_2" data-name="Group 2" transform="translate(296.159 35.967)">
        <path id="Path_6" data-name="Path 6" d="M283.456,120.8c-.146,0-.292-.005-.439-.014a78.606,78.606,0,0,1-62.581-39.508,7.011,7.011,0,0,1,.719-7.991h0a184.69,184.69,0,0,0,37.039-44.131,7.078,7.078,0,0,1,5.529-2.5,6.99,6.99,0,0,1,5.423,2.771c9.391,12.34,27.932,34.186,46.587,41.845a7.007,7.007,0,0,1,2.779,10.941l-29.672,36.03a7,7,0,0,1-5.384,2.556h0Z" transform="translate(-219.51 -26.658)" fill="#e6e6e6"/>
        <path id="Path_7" data-name="Path 7" d="M224.885,73.664l.517.433a1.931,1.931,0,0,0-.229,2.144,67.19,67.19,0,0,0,56.118,35.719,1.864,1.864,0,0,0,1.544-.7l29.459-35.771a1.913,1.913,0,0,0-.952-3.058c-20.008-5.847-41-32.931-46.958-41.094a1.9,1.9,0,0,0-1.476-.783,1.949,1.949,0,0,0-1.542.69c-10.212,16.968-21.7,32.009-35.964,42.85l-.517-.433Z" transform="translate(-217.633 -25.297)" fill="#fff"/>
        <path id="Path_8" data-name="Path 8" d="M237.155,76.493l26.7-27.227C265.684,47.4,262.825,44.54,261,46.4l-26.7,27.227c-1.825,1.861,1.034,4.726,2.862,2.862h0Z" transform="translate(-214.552 -19.975)" fill="#e6e6e6"/>
        <path id="Path_9" data-name="Path 9" d="M249.117,80.87a105.5,105.5,0,0,0,19.018-22.647c1.384-2.215-2.116-4.249-3.495-2.043a101.633,101.633,0,0,1-18.385,21.827c-1.944,1.742.926,4.6,2.862,2.862h0Z" transform="translate(-210.396 -16.681)" fill="#e6e6e6"/>
        <path id="Path_10" data-name="Path 10" d="M259.856,88.223a111.748,111.748,0,0,0,16.919-24.677c1.167-2.321-2.324-4.373-3.495-2.043a107.794,107.794,0,0,1-16.286,23.858c-1.742,1.929,1.112,4.8,2.862,2.862h0Z" transform="translate(-206.61 -14.849)" fill="#e6e6e6"/>
      </g>
      <g id="Group_3" data-name="Group 3" transform="translate(561.949 286.917)">
        <path id="Path_11" data-name="Path 11" d="M480.456,306.8c-.146,0-.292-.005-.439-.014a78.606,78.606,0,0,1-62.581-39.508,7.011,7.011,0,0,1,.719-7.991h0l37.039-44.131a7.078,7.078,0,0,1,5.528-2.5c2.145.051,4.9.687,5.423,2.771,4.267,16.936,22.644,38.927,46.587,41.845,2.25.274,3.615,2.61,4.165,4.8a6.916,6.916,0,0,1-1.385,6.141l-29.672,36.03a7,7,0,0,1-5.384,2.556Z" transform="translate(-416.51 -212.659)" fill="#e6e6e6"/>
        <path id="Path_12" data-name="Path 12" d="M421.885,259.664l.516.434a1.932,1.932,0,0,0-.229,2.144,67.191,67.191,0,0,0,56.118,35.719,1.864,1.864,0,0,0,1.544-.7l29.459-35.771a1.885,1.885,0,0,0,.354-1.779,1.618,1.618,0,0,0-1.306-1.279c-25.468-1.195-45.924-28.736-46.958-41.094-.049-.589-.887-.763-1.476-.783a1.949,1.949,0,0,0-1.542.69L422.4,260.1l-.516-.433Z" transform="translate(-414.633 -211.298)" fill="#fff"/>
        <path id="Path_13" data-name="Path 13" d="M434.155,262.493l26.7-27.227c1.825-1.861-1.034-4.726-2.862-2.862l-26.7,27.227c-1.825,1.861,1.034,4.726,2.862,2.862Z" transform="translate(-411.552 -205.976)" fill="#e6e6e6"/>
        <path id="Path_14" data-name="Path 14" d="M446.117,266.87a105.5,105.5,0,0,0,19.018-22.647c1.384-2.215-2.116-4.249-3.495-2.043a101.634,101.634,0,0,1-18.385,21.827c-1.944,1.742.926,4.6,2.862,2.862h0Z" transform="translate(-407.396 -202.682)" fill="#e6e6e6"/>
        <path id="Path_15" data-name="Path 15" d="M456.856,274.223a111.745,111.745,0,0,0,16.919-24.677c1.167-2.321-2.324-4.373-3.495-2.043a107.793,107.793,0,0,1-16.286,23.858c-1.742,1.929,1.112,4.8,2.862,2.862h0Z" transform="translate(-403.61 -200.85)" fill="#e6e6e6"/>
      </g>
      <g id="Group_4" data-name="Group 4" transform="translate(459.355 554.577)">
        <path id="Path_16" data-name="Path 16" d="M387.773,472.762h-16l-7.611-61.716h23.615Z" transform="translate(-332.194 -411.045)" fill="#ffb6b6"/>
        <path id="Path_17" data-name="Path 17" d="M341.229,461.192h0a13.736,13.736,0,0,0-.761,4.523h0a5.431,5.431,0,0,0,5.431,5.43h49.551a3.7,3.7,0,0,0,3.7-3.7v-2.063s2.451-6.2-2.6-13.842c0,0-6.272,5.984-15.645-3.388l-2.764-5.007-20.006,14.632-11.089,1.365c-2.426.3-4.577-.046-5.825,2.055h0Z" transform="translate(-340.468 -399.838)" fill="#2f2e41"/>
      </g>
      <g id="Group_5" data-name="Group 5" transform="translate(610.233 532.152)">
        <path id="Path_18" data-name="Path 18" d="M504.747,446.991l-13.629,8.383L452.3,406.8l20.115-12.372Z" transform="translate(-452.297 -394.424)" fill="#ffb6b6"/>
        <path id="Path_19" data-name="Path 19" d="M456.424,464.078h0a13.738,13.738,0,0,0,1.722,4.251h0a5.431,5.431,0,0,0,7.471,1.78l42.2-25.964a3.7,3.7,0,0,0,1.214-5.1l-1.081-1.757s-1.161-6.565-9.464-10.43c0,0-2.207,8.383-15.1,5.311l-4.977-2.816L469.039,452.3l-8.73,6.973c-1.91,1.526-3.923,2.359-3.884,4.8h0Z" transform="translate(-450.856 -383.097)" fill="#2f2e41"/>
      </g>
      <g id="Group_6" data-name="Group 6" transform="translate(472.806 107.839)">
        <path id="Path_20" data-name="Path 20" d="M419.126,254.814a20.188,20.188,0,0,1,.011-9.587L409.5,212.809l15.7-4.256,8.089,33.343a20.031,20.031,0,0,1,4.181,8.6c1.809,7.892-.829,15.257-5.893,16.449s-10.635-4.239-12.445-12.132h0Z" transform="translate(-329.815 -35.015)" fill="#ffb6b6"/>
        <path id="Path_21" data-name="Path 21" d="M350.438,83.64s25.3-11.011,39.421,4.9c12.856,14.482,38.955,58.062,36.275,62.3l25.694,121.406-19.045,5.867L382.262,138.47,350.438,83.639h0Z" transform="translate(-350.438 -79.929)" fill="#6c63ff"/>
      </g>
      <path id="Path_22" data-name="Path 22" d="M329.789,216.369l13.033,152.057,31.5,141.2,33.67-3.258L391.7,352.135,401.67,215.07Z" transform="translate(115.158 75.1)" fill="#2f2e41"/>
      <path id="Path_23" data-name="Path 23" d="M331.786,249.3l81.179,129.233,92.626,111.126,28.446-18.307L448.966,341.68c-13.02-57.12-27.439-110-53.863-126.431L331.786,249.3h0Z" transform="translate(115.855 75.162)" fill="#2f2e41"/>
      <path id="Path_24" data-name="Path 24" d="M339.518,306.335a16.419,16.419,0,0,1-16.268-17.574l7.082-67.943-2.7-74.193.017-.08,8.407-40.317a15.905,15.905,0,0,1,.785-3.94l12.418-37.336a16.38,16.38,0,0,1,15.566-11.228H375.8a16.37,16.37,0,0,1,13.65,7.305l9.613,14.419a16.416,16.416,0,0,1,1.6,3.057l21.222,53.561a16.4,16.4,0,0,1,1.138,5.316l6.584,148.647a16.382,16.382,0,0,1-18.823,16.941,177.386,177.386,0,0,0-67.434,2.911,16.55,16.55,0,0,1-3.835.455h0Z" transform="translate(112.86 18.76)" fill="#6c63ff"/>
      <path id="Path_25" data-name="Path 25" d="M337.788,158.492l-18.464-14.12s8.689-77.115,31.5-77.115,34.756-13.034,34.756-13.034,81.46,114.043,58.651,127.077-54.306,6.517-54.306,6.517L378.828,90.394a5.635,5.635,0,0,0-10.6-.834l-30.437,68.932h0Z" transform="translate(111.504 18.934)" fill="#3f3d56"/>
      <circle id="Ellipse_1" data-name="Ellipse 1" cx="31.571" cy="31.571" r="31.571" transform="translate(448.096 6.018)" fill="#ffb6b6"/>
      <path id="Path_26" data-name="Path 26" d="M390.976,61.456c-2.848,1.063-7.214,2.717-10.062,3.78-2.656-5.295.6-8.042.936-13.956a42.452,42.452,0,0,0,.234-5.919,7.817,7.817,0,0,0-2.326-5.3,6.368,6.368,0,0,0-8.26.4,8.308,8.308,0,0,0-1.929,8.388,22.57,22.57,0,0,1-13.053-22.914,24.182,24.182,0,0,0-8.011-2.118c-2.776-.078-5.75.982-7.229,3.332-1.037,1.648-1.244,3.74-2.408,5.3-1.891,2.536-5.979,2.733-8.49.809a8.922,8.922,0,0,1-2.937-8.538c.536-3.118-3.362-9.481-1.18-11.772,1.488-1.563,8.875.652,10.536-.727A43.972,43.972,0,0,1,341.5,8.665a22.028,22.028,0,0,1,6.907-2.823,43.983,43.983,0,0,1,7.042-.776c2.4-.134,5.712-4.906,8.108-5.04,7.056-.4,13.361,3.865,20.131,5.894s11.028,7.853,14.775,13.845c5.337,8.535,3.523,17.886-.152,26.047-.908,2.017,2.14,4.137,1.689,6.3-.42,2.013-2.306,3.471-2.747,5.48-.377,1.718-2.606-.272-3.138,1.4a4.855,4.855,0,0,1-3.257,2.929,14.347,14.347,0,0,1-4.51.438" transform="translate(113.692 0)" fill="#2f2e41"/>
      <path id="Path_27" data-name="Path 27" d="M371.348,53.623l1.113.81,2.805,2.042A14.278,14.278,0,0,1,373.8,80.5h0l-11.4-18.216" transform="translate(126.543 18.724)" fill="#3f3d56"/>
      <path id="Path_28" data-name="Path 28" d="M505.573,477.177a3.062,3.062,0,0,0,2.219-5.307l-.21-.834.083-.2a8.222,8.222,0,0,1,15.167.056c2.48,5.974,5.639,11.959,6.416,18.276a24.329,24.329,0,0,1-.427,8.366,97.522,97.522,0,0,0,8.871-40.5,94.115,94.115,0,0,0-.584-10.5q-.484-4.288-1.342-8.514A98.652,98.652,0,0,0,516.2,396.2a26.254,26.254,0,0,1-10.919-11.328,20.028,20.028,0,0,1-1.821-5.473c.532.07,2-8.026,1.6-8.523.741-1.124,2.067-1.683,2.876-2.78,4.024-5.455,9.567-4.5,12.461,2.911,6.182,3.12,6.242,8.295,2.449,13.272-2.414,3.166-2.745,7.451-4.863,10.84.218.279.445.549.662.828a99.285,99.285,0,0,1,10.363,16.418A41.276,41.276,0,0,1,531.48,393.2c2.359-5.69,6.78-10.482,10.673-15.4,4.676-5.908,14.266-3.33,15.089,4.16q.012.109.023.217-.867.489-1.7,1.039a4.153,4.153,0,0,0,1.674,7.558l.085.013a41.313,41.313,0,0,1-1.089,6.178c4.994,19.315-5.788,26.35-21.184,26.665-.34.174-.671.349-1.011.514a101.35,101.35,0,0,1,5.455,25.672,96.112,96.112,0,0,1-.07,15.52l.026-.183a25.4,25.4,0,0,1,8.671-14.666c6.673-5.481,16.1-7.5,23.3-11.906a4.767,4.767,0,0,1,7.3,4.637l-.029.192a27.894,27.894,0,0,0-3.128,1.508q-.867.489-1.7,1.039a4.153,4.153,0,0,0,1.674,7.558l.085.013.174.026a41.36,41.36,0,0,1-7.607,11.912c-3.123,16.861-16.536,18.461-30.883,13.551H537.3a101.316,101.316,0,0,1-6.806,19.868H506.182c-.087-.27-.166-.549-.244-.819a27.622,27.622,0,0,0,6.727-.4c-1.8-2.214-3.608-4.444-5.412-6.658a1.535,1.535,0,0,1-.113-.131c-.915-1.133-1.839-2.257-2.754-3.39h0a40.462,40.462,0,0,1,1.186-10.308h0Z" transform="translate(175.803 127.321)" fill="#f2f2f2"/>
      <path id="Path_29" data-name="Path 29" d="M193.476,464.6a1.6,1.6,0,0,0,1.606,1.606H685.228a1.606,1.606,0,0,0,0-3.211H195.082a1.6,1.6,0,0,0-1.606,1.606Z" transform="translate(67.559 161.673)" fill="#ccc"/>
      <g id="Group_7" data-name="Group 7" transform="translate(320.948 90.14)">
        <path id="Path_30" data-name="Path 30" d="M255.6,82.327a19.506,19.506,0,0,1,6.364,6.659l28.253,16.186-8.095,13.219-27.789-17.842a19.505,19.505,0,0,1-8.625-3.232c-6.5-4.292-9.563-11.127-6.831-15.266s10.218-4.015,16.723.277h0Z" transform="translate(-237.882 -62.546)" fill="#ffb6b6"/>
        <path id="Path_31" data-name="Path 31" d="M380.749,69.53c18.017-11.05,36.122,14.255,20.1,28.041l-.055.047-64.009,60.2-76.6-37.828,7.575-20.425,59.349,23.51,44.52-46.218a49.707,49.707,0,0,1,9.121-7.331h0Z" transform="translate(-230.095 -66.811)" fill="#6c63ff"/>
      </g>
      <path id="Path_32" data-name="Path 32" d="M68.993,143.332a2.7,2.7,0,0,0-2.7,2.7v41.825a2.7,2.7,0,1,0,5.4,0V146.03A2.7,2.7,0,0,0,68.993,143.332Z" transform="translate(23.149 50.05)" fill="#3f3d56"/>
      <g id="Group_8" data-name="Group 8" transform="translate(101.773 200.328)">
        <ellipse id="Ellipse_2" data-name="Ellipse 2" cx="16.815" cy="16.461" rx="16.815" ry="16.461" transform="translate(0 0.433)" fill="#6c63ff"/>
        <path id="Path_33" data-name="Path 33" d="M212.692,159.743h-90.51a5.631,5.631,0,0,1,0-11.263h90.51a5.631,5.631,0,1,1,0,11.263Z" transform="translate(-61.075 -148.48)" fill="#f2f2f2"/>
        <path id="Path_34" data-name="Path 34" d="M283.326,173.87H122.181a5.631,5.631,0,0,1,0-11.263H283.326a5.631,5.631,0,1,1,0,11.263h0Z" transform="translate(-61.075 -143.547)" fill="#f2f2f2"/>
      </g>
      <g id="Group_9" data-name="Group 9" transform="translate(0 289.347)">
        <ellipse id="Ellipse_3" data-name="Ellipse 3" cx="16.815" cy="16.461" rx="16.815" ry="16.461" transform="translate(0 0.433)" fill="#6c63ff"/>
        <path id="Path_35" data-name="Path 35" d="M137.259,225.723H46.749a5.631,5.631,0,0,1,0-11.263h90.51a5.631,5.631,0,0,1,0,11.263Z" transform="translate(14.358 -214.46)" fill="#f2f2f2"/>
      </g>
      <ellipse id="Ellipse_4" data-name="Ellipse 4" cx="16.815" cy="16.461" rx="16.815" ry="16.461" transform="translate(157.933 343.761)" fill="#6c63ff"/>
      <path id="Path_36" data-name="Path 36" d="M324.951,279.86H163.806a5.631,5.631,0,0,1,0-11.263H324.951a5.631,5.631,0,0,1,0,11.263h0Z" transform="translate(55.233 93.791)" fill="#f2f2f2"/>
      <ellipse id="Ellipse_5" data-name="Ellipse 5" cx="16.815" cy="16.461" rx="16.815" ry="16.461" transform="translate(323.558 35.968)" fill="#6c63ff"/>
      <ellipse id="Ellipse_6" data-name="Ellipse 6" cx="16.815" cy="16.461" rx="16.815" ry="16.461" transform="translate(633.076 311.928)" fill="#6c63ff"/>
    </g>
  </g>
</svg>
